  0
SECTION
  2
BLOCKS
  0
ENDSEC
  0
SECTION
  2
ENTITIES
  0
LINE
  8
0
 10
357.502
 20
0.0157928
 11
358.003
 21
0.0630951
  0
LINE
  8
0
 10
358.003
 20
0.0630951
 11
358.499
 21
0.141708
  0
LINE
  8
0
 10
358.499
 20
0.141708
 11
358.99
 21
0.251343
  0
LINE
  8
0
 10
358.99
 20
0.251343
 11
359.472
 21
0.391556
  0
LINE
  8
0
 10
359.472
 20
0.391556
 11
359.945
 21
0.561798
  0
LINE
  8
0
 10
359.945
 20
0.561798
 11
360.406
 21
0.761398
  0
LINE
  8
0
 10
360.406
 20
0.761398
 11
360.854
 21
0.989548
  0
LINE
  8
0
 10
360.854
 20
0.989548
 11
361.287
 21
1.24539
  0
LINE
  8
0
 10
361.287
 20
1.24539
 11
361.702
 21
1.52788
  0
LINE
  8
0
 10
361.702
 20
1.52788
 11
362.099
 21
1.83591
  0
LINE
  8
0
 10
362.099
 20
1.83591
 11
362.476
 21
2.16826
  0
LINE
  8
0
 10
362.476
 20
2.16826
 11
362.832
 21
2.52364
  0
LINE
  8
0
 10
362.832
 20
2.52364
 11
363.164
 21
2.90062
  0
LINE
  8
0
 10
363.164
 20
2.90062
 11
363.472
 21
3.29773
  0
LINE
  8
0
 10
363.472
 20
3.29773
 11
363.755
 21
3.71339
  0
LINE
  8
0
 10
363.755
 20
3.71339
 11
364.01
 21
4.14598
  0
LINE
  8
0
 10
364.01
 20
4.14598
 11
364.239
 21
4.59378
  0
LINE
  8
0
 10
364.239
 20
4.59378
 11
364.438
 21
5.05501
  0
LINE
  8
0
 10
364.438
 20
5.05501
 11
364.608
 21
5.52788
  0
LINE
  8
0
 10
364.608
 20
5.52788
 11
364.749
 21
6.01048
  0
LINE
  8
0
 10
364.749
 20
6.01048
 11
364.858
 21
6.50096
  0
LINE
  8
0
 10
364.858
 20
6.50096
 11
364.937
 21
6.99734
  0
LINE
  8
0
 10
364.937
 20
6.99734
 11
364.984
 21
7.49768
  0
LINE
  8
0
 10
364.984
 20
7.49768
 11
365
 21
8
  0
LINE
  8
0
 10
365
 20
8
 11
365
 21
259
  0
LINE
  8
0
 10
365
 20
259
 11
364.984
 21
259.502
  0
LINE
  8
0
 10
364.984
 20
259.502
 11
364.937
 21
260.003
  0
LINE
  8
0
 10
364.937
 20
260.003
 11
364.858
 21
260.499
  0
LINE
  8
0
 10
364.858
 20
260.499
 11
364.749
 21
260.99
  0
LINE
  8
0
 10
364.749
 20
260.99
 11
364.608
 21
261.472
  0
LINE
  8
0
 10
364.608
 20
261.472
 11
364.438
 21
261.945
  0
LINE
  8
0
 10
364.438
 20
261.945
 11
364.239
 21
262.406
  0
LINE
  8
0
 10
364.239
 20
262.406
 11
364.01
 21
262.854
  0
LINE
  8
0
 10
364.01
 20
262.854
 11
363.755
 21
263.287
  0
LINE
  8
0
 10
363.755
 20
263.287
 11
363.472
 21
263.702
  0
LINE
  8
0
 10
363.472
 20
263.702
 11
363.164
 21
264.099
  0
LINE
  8
0
 10
363.164
 20
264.099
 11
362.832
 21
264.476
  0
LINE
  8
0
 10
362.832
 20
264.476
 11
362.476
 21
264.832
  0
LINE
  8
0
 10
362.476
 20
264.832
 11
362.099
 21
265.164
  0
LINE
  8
0
 10
362.099
 20
265.164
 11
361.702
 21
265.472
  0
LINE
  8
0
 10
361.702
 20
265.472
 11
361.287
 21
265.755
  0
LINE
  8
0
 10
361.287
 20
265.755
 11
360.854
 21
266.01
  0
LINE
  8
0
 10
360.854
 20
266.01
 11
360.406
 21
266.239
  0
LINE
  8
0
 10
360.406
 20
266.239
 11
359.945
 21
266.438
  0
LINE
  8
0
 10
359.945
 20
266.438
 11
359.472
 21
266.608
  0
LINE
  8
0
 10
359.472
 20
266.608
 11
358.99
 21
266.749
  0
LINE
  8
0
 10
358.99
 20
266.749
 11
358.499
 21
266.858
  0
LINE
  8
0
 10
358.499
 20
266.858
 11
358.003
 21
266.937
  0
LINE
  8
0
 10
358.003
 20
266.937
 11
357.502
 21
266.984
  0
LINE
  8
0
 10
357.502
 20
266.984
 11
357
 21
267
  0
LINE
  8
0
 10
357
 20
267
 11
8
 21
267
  0
LINE
  8
0
 10
8
 20
267
 11
7.49768
 21
266.984
  0
LINE
  8
0
 10
7.49768
 20
266.984
 11
6.99734
 21
266.937
  0
LINE
  8
0
 10
6.99734
 20
266.937
 11
6.50096
 21
266.858
  0
LINE
  8
0
 10
6.50096
 20
266.858
 11
6.01048
 21
266.749
  0
LINE
  8
0
 10
6.01048
 20
266.749
 11
5.52788
 21
266.608
  0
LINE
  8
0
 10
5.52788
 20
266.608
 11
5.05501
 21
266.438
  0
LINE
  8
0
 10
5.05501
 20
266.438
 11
4.59378
 21
266.239
  0
LINE
  8
0
 10
4.59378
 20
266.239
 11
4.14598
 21
266.01
  0
LINE
  8
0
 10
4.14598
 20
266.01
 11
3.71339
 21
265.755
  0
LINE
  8
0
 10
3.71339
 20
265.755
 11
3.29773
 21
265.472
  0
LINE
  8
0
 10
3.29773
 20
265.472
 11
2.90062
 21
265.164
  0
LINE
  8
0
 10
2.90062
 20
265.164
 11
2.52364
 21
264.832
  0
LINE
  8
0
 10
2.52364
 20
264.832
 11
2.16826
 21
264.476
  0
LINE
  8
0
 10
2.16826
 20
264.476
 11
1.83591
 21
264.099
  0
LINE
  8
0
 10
1.83591
 20
264.099
 11
1.52788
 21
263.702
  0
LINE
  8
0
 10
1.52788
 20
263.702
 11
1.24539
 21
263.287
  0
LINE
  8
0
 10
1.24539
 20
263.287
 11
0.989548
 21
262.854
  0
LINE
  8
0
 10
0.989548
 20
262.854
 11
0.761398
 21
262.406
  0
LINE
  8
0
 10
0.761398
 20
262.406
 11
0.561798
 21
261.945
  0
LINE
  8
0
 10
0.561798
 20
261.945
 11
0.391556
 21
261.472
  0
LINE
  8
0
 10
0.391556
 20
261.472
 11
0.251343
 21
260.99
  0
LINE
  8
0
 10
0.251343
 20
260.99
 11
0.141708
 21
260.499
  0
LINE
  8
0
 10
0.141708
 20
260.499
 11
0.0630951
 21
260.003
  0
LINE
  8
0
 10
0.0630951
 20
260.003
 11
0.0157928
 21
259.502
  0
LINE
  8
0
 10
0.0157928
 20
259.502
 11
0
 21
259
  0
LINE
  8
0
 10
0
 20
259
 11
0
 21
8
  0
LINE
  8
0
 10
0
 20
8
 11
0.0157928
 21
7.49768
  0
LINE
  8
0
 10
0.0157928
 20
7.49768
 11
0.0630951
 21
6.99734
  0
LINE
  8
0
 10
0.0630951
 20
6.99734
 11
0.141708
 21
6.50096
  0
LINE
  8
0
 10
0.141708
 20
6.50096
 11
0.251343
 21
6.01048
  0
LINE
  8
0
 10
0.251343
 20
6.01048
 11
0.391556
 21
5.52788
  0
LINE
  8
0
 10
0.391556
 20
5.52788
 11
0.561798
 21
5.05501
  0
LINE
  8
0
 10
0.561798
 20
5.05501
 11
0.761398
 21
4.59378
  0
LINE
  8
0
 10
0.761398
 20
4.59378
 11
0.989548
 21
4.14598
  0
LINE
  8
0
 10
0.989548
 20
4.14598
 11
1.24539
 21
3.71339
  0
LINE
  8
0
 10
1.24539
 20
3.71339
 11
1.52788
 21
3.29773
  0
LINE
  8
0
 10
1.52788
 20
3.29773
 11
1.83591
 21
2.90062
  0
LINE
  8
0
 10
1.83591
 20
2.90062
 11
2.16826
 21
2.52364
  0
LINE
  8
0
 10
2.16826
 20
2.52364
 11
2.52364
 21
2.16826
  0
LINE
  8
0
 10
2.52364
 20
2.16826
 11
2.90062
 21
1.83591
  0
LINE
  8
0
 10
2.90062
 20
1.83591
 11
3.29773
 21
1.52788
  0
LINE
  8
0
 10
3.29773
 20
1.52788
 11
3.71339
 21
1.24539
  0
LINE
  8
0
 10
3.71339
 20
1.24539
 11
4.14598
 21
0.989548
  0
LINE
  8
0
 10
4.14598
 20
0.989548
 11
4.59378
 21
0.761398
  0
LINE
  8
0
 10
4.59378
 20
0.761398
 11
5.05501
 21
0.561798
  0
LINE
  8
0
 10
5.05501
 20
0.561798
 11
5.52788
 21
0.391556
  0
LINE
  8
0
 10
5.52788
 20
0.391556
 11
6.01048
 21
0.251343
  0
LINE
  8
0
 10
6.01048
 20
0.251343
 11
6.50096
 21
0.141708
  0
LINE
  8
0
 10
6.50096
 20
0.141708
 11
6.99734
 21
0.0630951
  0
LINE
  8
0
 10
6.99734
 20
0.0630951
 11
7.49768
 21
0.0157928
  0
LINE
  8
0
 10
7.49768
 20
0.0157928
 11
8
 21
0
  0
LINE
  8
0
 10
8
 20
0
 11
357
 21
0
  0
LINE
  8
0
 10
357
 20
0
 11
357.502
 21
0.0157928
  0
LINE
  8
0
 10
64.1667
 20
258
 11
64.1667
 21
263
  0
LINE
  8
0
 10
64.1667
 20
263
 11
123.333
 21
263
  0
LINE
  8
0
 10
123.333
 20
263
 11
123.333
 21
258
  0
LINE
  8
0
 10
123.333
 20
258
 11
64.1667
 21
258
  0
LINE
  8
0
 10
241.667
 20
258
 11
241.667
 21
263
  0
LINE
  8
0
 10
241.667
 20
263
 11
300.833
 21
263
  0
LINE
  8
0
 10
300.833
 20
263
 11
300.833
 21
258
  0
LINE
  8
0
 10
300.833
 20
258
 11
241.667
 21
258
  0
LINE
  8
0
 10
182.406
 20
259.003
 11
182.312
 21
259.012
  0
LINE
  8
0
 10
182.312
 20
259.012
 11
182.219
 21
259.027
  0
LINE
  8
0
 10
182.219
 20
259.027
 11
182.127
 21
259.047
  0
LINE
  8
0
 10
182.127
 20
259.047
 11
182.036
 21
259.073
  0
LINE
  8
0
 10
182.036
 20
259.073
 11
181.948
 21
259.105
  0
LINE
  8
0
 10
181.948
 20
259.105
 11
181.861
 21
259.143
  0
LINE
  8
0
 10
181.861
 20
259.143
 11
181.777
 21
259.186
  0
LINE
  8
0
 10
181.777
 20
259.186
 11
181.696
 21
259.234
  0
LINE
  8
0
 10
181.696
 20
259.234
 11
181.618
 21
259.286
  0
LINE
  8
0
 10
181.618
 20
259.286
 11
181.544
 21
259.344
  0
LINE
  8
0
 10
181.544
 20
259.344
 11
181.473
 21
259.407
  0
LINE
  8
0
 10
181.473
 20
259.407
 11
181.407
 21
259.473
  0
LINE
  8
0
 10
181.407
 20
259.473
 11
181.344
 21
259.544
  0
LINE
  8
0
 10
181.344
 20
259.544
 11
181.286
 21
259.618
  0
LINE
  8
0
 10
181.286
 20
259.618
 11
181.234
 21
259.696
  0
LINE
  8
0
 10
181.234
 20
259.696
 11
181.186
 21
259.777
  0
LINE
  8
0
 10
181.186
 20
259.777
 11
181.143
 21
259.861
  0
LINE
  8
0
 10
181.143
 20
259.861
 11
181.105
 21
259.948
  0
LINE
  8
0
 10
181.105
 20
259.948
 11
181.073
 21
260.036
  0
LINE
  8
0
 10
181.073
 20
260.036
 11
181.047
 21
260.127
  0
LINE
  8
0
 10
181.047
 20
260.127
 11
181.027
 21
260.219
  0
LINE
  8
0
 10
181.027
 20
260.219
 11
181.012
 21
260.312
  0
LINE
  8
0
 10
181.012
 20
260.312
 11
181.003
 21
260.406
  0
LINE
  8
0
 10
181.003
 20
260.406
 11
181
 21
260.5
  0
LINE
  8
0
 10
181
 20
260.5
 11
181.003
 21
260.594
  0
LINE
  8
0
 10
181.003
 20
260.594
 11
181.012
 21
260.688
  0
LINE
  8
0
 10
181.012
 20
260.688
 11
181.027
 21
260.781
  0
LINE
  8
0
 10
181.027
 20
260.781
 11
181.047
 21
260.873
  0
LINE
  8
0
 10
181.047
 20
260.873
 11
181.073
 21
260.964
  0
LINE
  8
0
 10
181.073
 20
260.964
 11
181.105
 21
261.052
  0
LINE
  8
0
 10
181.105
 20
261.052
 11
181.143
 21
261.139
  0
LINE
  8
0
 10
181.143
 20
261.139
 11
181.186
 21
261.223
  0
LINE
  8
0
 10
181.186
 20
261.223
 11
181.234
 21
261.304
  0
LINE
  8
0
 10
181.234
 20
261.304
 11
181.286
 21
261.382
  0
LINE
  8
0
 10
181.286
 20
261.382
 11
181.344
 21
261.456
  0
LINE
  8
0
 10
181.344
 20
261.456
 11
181.407
 21
261.527
  0
LINE
  8
0
 10
181.407
 20
261.527
 11
181.473
 21
261.593
  0
LINE
  8
0
 10
181.473
 20
261.593
 11
181.544
 21
261.656
  0
LINE
  8
0
 10
181.544
 20
261.656
 11
181.618
 21
261.714
  0
LINE
  8
0
 10
181.618
 20
261.714
 11
181.696
 21
261.766
  0
LINE
  8
0
 10
181.696
 20
261.766
 11
181.777
 21
261.814
  0
LINE
  8
0
 10
181.777
 20
261.814
 11
181.861
 21
261.857
  0
LINE
  8
0
 10
181.861
 20
261.857
 11
181.948
 21
261.895
  0
LINE
  8
0
 10
181.948
 20
261.895
 11
182.036
 21
261.927
  0
LINE
  8
0
 10
182.036
 20
261.927
 11
182.127
 21
261.953
  0
LINE
  8
0
 10
182.127
 20
261.953
 11
182.219
 21
261.973
  0
LINE
  8
0
 10
182.219
 20
261.973
 11
182.312
 21
261.988
  0
LINE
  8
0
 10
182.312
 20
261.988
 11
182.406
 21
261.997
  0
LINE
  8
0
 10
182.406
 20
261.997
 11
182.5
 21
262
  0
LINE
  8
0
 10
182.5
 20
262
 11
182.594
 21
261.997
  0
LINE
  8
0
 10
182.594
 20
261.997
 11
182.688
 21
261.988
  0
LINE
  8
0
 10
182.688
 20
261.988
 11
182.781
 21
261.973
  0
LINE
  8
0
 10
182.781
 20
261.973
 11
182.873
 21
261.953
  0
LINE
  8
0
 10
182.873
 20
261.953
 11
182.964
 21
261.927
  0
LINE
  8
0
 10
182.964
 20
261.927
 11
183.052
 21
261.895
  0
LINE
  8
0
 10
183.052
 20
261.895
 11
183.139
 21
261.857
  0
LINE
  8
0
 10
183.139
 20
261.857
 11
183.223
 21
261.814
  0
LINE
  8
0
 10
183.223
 20
261.814
 11
183.304
 21
261.766
  0
LINE
  8
0
 10
183.304
 20
261.766
 11
183.382
 21
261.714
  0
LINE
  8
0
 10
183.382
 20
261.714
 11
183.456
 21
261.656
  0
LINE
  8
0
 10
183.456
 20
261.656
 11
183.527
 21
261.593
  0
LINE
  8
0
 10
183.527
 20
261.593
 11
183.593
 21
261.527
  0
LINE
  8
0
 10
183.593
 20
261.527
 11
183.656
 21
261.456
  0
LINE
  8
0
 10
183.656
 20
261.456
 11
183.714
 21
261.382
  0
LINE
  8
0
 10
183.714
 20
261.382
 11
183.766
 21
261.304
  0
LINE
  8
0
 10
183.766
 20
261.304
 11
183.814
 21
261.223
  0
LINE
  8
0
 10
183.814
 20
261.223
 11
183.857
 21
261.139
  0
LINE
  8
0
 10
183.857
 20
261.139
 11
183.895
 21
261.052
  0
LINE
  8
0
 10
183.895
 20
261.052
 11
183.927
 21
260.964
  0
LINE
  8
0
 10
183.927
 20
260.964
 11
183.953
 21
260.873
  0
LINE
  8
0
 10
183.953
 20
260.873
 11
183.973
 21
260.781
  0
LINE
  8
0
 10
183.973
 20
260.781
 11
183.988
 21
260.688
  0
LINE
  8
0
 10
183.988
 20
260.688
 11
183.997
 21
260.594
  0
LINE
  8
0
 10
183.997
 20
260.594
 11
184
 21
260.5
  0
LINE
  8
0
 10
184
 20
260.5
 11
183.997
 21
260.406
  0
LINE
  8
0
 10
183.997
 20
260.406
 11
183.988
 21
260.312
  0
LINE
  8
0
 10
183.988
 20
260.312
 11
183.973
 21
260.219
  0
LINE
  8
0
 10
183.973
 20
260.219
 11
183.953
 21
260.127
  0
LINE
  8
0
 10
183.953
 20
260.127
 11
183.927
 21
260.036
  0
LINE
  8
0
 10
183.927
 20
260.036
 11
183.895
 21
259.948
  0
LINE
  8
0
 10
183.895
 20
259.948
 11
183.857
 21
259.861
  0
LINE
  8
0
 10
183.857
 20
259.861
 11
183.814
 21
259.777
  0
LINE
  8
0
 10
183.814
 20
259.777
 11
183.766
 21
259.696
  0
LINE
  8
0
 10
183.766
 20
259.696
 11
183.714
 21
259.618
  0
LINE
  8
0
 10
183.714
 20
259.618
 11
183.656
 21
259.544
  0
LINE
  8
0
 10
183.656
 20
259.544
 11
183.593
 21
259.473
  0
LINE
  8
0
 10
183.593
 20
259.473
 11
183.527
 21
259.407
  0
LINE
  8
0
 10
183.527
 20
259.407
 11
183.456
 21
259.344
  0
LINE
  8
0
 10
183.456
 20
259.344
 11
183.382
 21
259.286
  0
LINE
  8
0
 10
183.382
 20
259.286
 11
183.304
 21
259.234
  0
LINE
  8
0
 10
183.304
 20
259.234
 11
183.223
 21
259.186
  0
LINE
  8
0
 10
183.223
 20
259.186
 11
183.139
 21
259.143
  0
LINE
  8
0
 10
183.139
 20
259.143
 11
183.052
 21
259.105
  0
LINE
  8
0
 10
183.052
 20
259.105
 11
182.964
 21
259.073
  0
LINE
  8
0
 10
182.964
 20
259.073
 11
182.873
 21
259.047
  0
LINE
  8
0
 10
182.873
 20
259.047
 11
182.781
 21
259.027
  0
LINE
  8
0
 10
182.781
 20
259.027
 11
182.688
 21
259.012
  0
LINE
  8
0
 10
182.688
 20
259.012
 11
182.594
 21
259.003
  0
LINE
  8
0
 10
182.594
 20
259.003
 11
182.5
 21
259
  0
LINE
  8
0
 10
182.5
 20
259
 11
182.406
 21
259.003
  0
LINE
  8
0
 10
4
 20
176.333
 11
4
 21
219.167
  0
LINE
  8
0
 10
4
 20
219.167
 11
9
 21
219.167
  0
LINE
  8
0
 10
9
 20
219.167
 11
9
 21
176.333
  0
LINE
  8
0
 10
9
 20
176.333
 11
4
 21
176.333
  0
LINE
  8
0
 10
356
 20
176.333
 11
356
 21
219.167
  0
LINE
  8
0
 10
356
 20
219.167
 11
361
 21
219.167
  0
LINE
  8
0
 10
361
 20
219.167
 11
361
 21
176.333
  0
LINE
  8
0
 10
361
 20
176.333
 11
356
 21
176.333
  0
LINE
  8
0
 10
6.40581
 20
132.003
 11
6.312
 21
132.012
  0
LINE
  8
0
 10
6.312
 20
132.012
 11
6.21892
 21
132.027
  0
LINE
  8
0
 10
6.21892
 20
132.027
 11
6.12695
 21
132.047
  0
LINE
  8
0
 10
6.12695
 20
132.047
 11
6.03647
 21
132.073
  0
LINE
  8
0
 10
6.03647
 20
132.073
 11
5.9478
 21
132.105
  0
LINE
  8
0
 10
5.9478
 20
132.105
 11
5.86133
 21
132.143
  0
LINE
  8
0
 10
5.86133
 20
132.143
 11
5.77736
 21
132.186
  0
LINE
  8
0
 10
5.77736
 20
132.186
 11
5.69626
 21
132.234
  0
LINE
  8
0
 10
5.69626
 20
132.234
 11
5.61832
 21
132.286
  0
LINE
  8
0
 10
5.61832
 20
132.286
 11
5.54385
 21
132.344
  0
LINE
  8
0
 10
5.54385
 20
132.344
 11
5.47318
 21
132.407
  0
LINE
  8
0
 10
5.47318
 20
132.407
 11
5.40654
 21
132.473
  0
LINE
  8
0
 10
5.40654
 20
132.473
 11
5.34422
 21
132.544
  0
LINE
  8
0
 10
5.34422
 20
132.544
 11
5.28647
 21
132.618
  0
LINE
  8
0
 10
5.28647
 20
132.618
 11
5.23351
 21
132.696
  0
LINE
  8
0
 10
5.23351
 20
132.696
 11
5.18553
 21
132.777
  0
LINE
  8
0
 10
5.18553
 20
132.777
 11
5.14275
 21
132.861
  0
LINE
  8
0
 10
5.14275
 20
132.861
 11
5.10533
 21
132.948
  0
LINE
  8
0
 10
5.10533
 20
132.948
 11
5.07341
 21
133.036
  0
LINE
  8
0
 10
5.07341
 20
133.036
 11
5.04712
 21
133.127
  0
LINE
  8
0
 10
5.04712
 20
133.127
 11
5.02657
 21
133.219
  0
LINE
  8
0
 10
5.02657
 20
133.219
 11
5.01183
 21
133.312
  0
LINE
  8
0
 10
5.01183
 20
133.312
 11
5.00294
 21
133.406
  0
LINE
  8
0
 10
5.00294
 20
133.406
 11
5
 21
133.5
  0
LINE
  8
0
 10
5
 20
133.5
 11
5.00294
 21
133.594
  0
LINE
  8
0
 10
5.00294
 20
133.594
 11
5.01183
 21
133.688
  0
LINE
  8
0
 10
5.01183
 20
133.688
 11
5.02657
 21
133.781
  0
LINE
  8
0
 10
5.02657
 20
133.781
 11
5.04712
 21
133.873
  0
LINE
  8
0
 10
5.04712
 20
133.873
 11
5.07341
 21
133.964
  0
LINE
  8
0
 10
5.07341
 20
133.964
 11
5.10533
 21
134.052
  0
LINE
  8
0
 10
5.10533
 20
134.052
 11
5.14275
 21
134.139
  0
LINE
  8
0
 10
5.14275
 20
134.139
 11
5.18553
 21
134.223
  0
LINE
  8
0
 10
5.18553
 20
134.223
 11
5.23351
 21
134.304
  0
LINE
  8
0
 10
5.23351
 20
134.304
 11
5.28647
 21
134.382
  0
LINE
  8
0
 10
5.28647
 20
134.382
 11
5.34422
 21
134.456
  0
LINE
  8
0
 10
5.34422
 20
134.456
 11
5.40654
 21
134.527
  0
LINE
  8
0
 10
5.40654
 20
134.527
 11
5.47318
 21
134.593
  0
LINE
  8
0
 10
5.47318
 20
134.593
 11
5.54385
 21
134.656
  0
LINE
  8
0
 10
5.54385
 20
134.656
 11
5.61832
 21
134.714
  0
LINE
  8
0
 10
5.61832
 20
134.714
 11
5.69626
 21
134.766
  0
LINE
  8
0
 10
5.69626
 20
134.766
 11
5.77736
 21
134.814
  0
LINE
  8
0
 10
5.77736
 20
134.814
 11
5.86133
 21
134.857
  0
LINE
  8
0
 10
5.86133
 20
134.857
 11
5.9478
 21
134.895
  0
LINE
  8
0
 10
5.9478
 20
134.895
 11
6.03647
 21
134.927
  0
LINE
  8
0
 10
6.03647
 20
134.927
 11
6.12695
 21
134.953
  0
LINE
  8
0
 10
6.12695
 20
134.953
 11
6.21892
 21
134.973
  0
LINE
  8
0
 10
6.21892
 20
134.973
 11
6.312
 21
134.988
  0
LINE
  8
0
 10
6.312
 20
134.988
 11
6.40581
 21
134.997
  0
LINE
  8
0
 10
6.40581
 20
134.997
 11
6.5
 21
135
  0
LINE
  8
0
 10
6.5
 20
135
 11
6.59418
 21
134.997
  0
LINE
  8
0
 10
6.59418
 20
134.997
 11
6.68799
 21
134.988
  0
LINE
  8
0
 10
6.68799
 20
134.988
 11
6.78107
 21
134.973
  0
LINE
  8
0
 10
6.78107
 20
134.973
 11
6.87303
 21
134.953
  0
LINE
  8
0
 10
6.87303
 20
134.953
 11
6.96352
 21
134.927
  0
LINE
  8
0
 10
6.96352
 20
134.927
 11
7.05219
 21
134.895
  0
LINE
  8
0
 10
7.05219
 20
134.895
 11
7.13866
 21
134.857
  0
LINE
  8
0
 10
7.13866
 20
134.857
 11
7.22263
 21
134.814
  0
LINE
  8
0
 10
7.22263
 20
134.814
 11
7.30373
 21
134.766
  0
LINE
  8
0
 10
7.30373
 20
134.766
 11
7.38167
 21
134.714
  0
LINE
  8
0
 10
7.38167
 20
134.714
 11
7.45613
 21
134.656
  0
LINE
  8
0
 10
7.45613
 20
134.656
 11
7.52681
 21
134.593
  0
LINE
  8
0
 10
7.52681
 20
134.593
 11
7.59344
 21
134.527
  0
LINE
  8
0
 10
7.59344
 20
134.527
 11
7.65576
 21
134.456
  0
LINE
  8
0
 10
7.65576
 20
134.456
 11
7.71352
 21
134.382
  0
LINE
  8
0
 10
7.71352
 20
134.382
 11
7.76648
 21
134.304
  0
LINE
  8
0
 10
7.76648
 20
134.304
 11
7.81445
 21
134.223
  0
LINE
  8
0
 10
7.81445
 20
134.223
 11
7.85724
 21
134.139
  0
LINE
  8
0
 10
7.85724
 20
134.139
 11
7.89465
 21
134.052
  0
LINE
  8
0
 10
7.89465
 20
134.052
 11
7.92657
 21
133.964
  0
LINE
  8
0
 10
7.92657
 20
133.964
 11
7.95287
 21
133.873
  0
LINE
  8
0
 10
7.95287
 20
133.873
 11
7.97342
 21
133.781
  0
LINE
  8
0
 10
7.97342
 20
133.781
 11
7.98816
 21
133.688
  0
LINE
  8
0
 10
7.98816
 20
133.688
 11
7.99704
 21
133.594
  0
LINE
  8
0
 10
7.99704
 20
133.594
 11
8
 21
133.5
  0
LINE
  8
0
 10
8
 20
133.5
 11
7.99704
 21
133.406
  0
LINE
  8
0
 10
7.99704
 20
133.406
 11
7.98816
 21
133.312
  0
LINE
  8
0
 10
7.98816
 20
133.312
 11
7.97342
 21
133.219
  0
LINE
  8
0
 10
7.97342
 20
133.219
 11
7.95287
 21
133.127
  0
LINE
  8
0
 10
7.95287
 20
133.127
 11
7.92657
 21
133.036
  0
LINE
  8
0
 10
7.92657
 20
133.036
 11
7.89465
 21
132.948
  0
LINE
  8
0
 10
7.89465
 20
132.948
 11
7.85724
 21
132.861
  0
LINE
  8
0
 10
7.85724
 20
132.861
 11
7.81445
 21
132.777
  0
LINE
  8
0
 10
7.81445
 20
132.777
 11
7.76648
 21
132.696
  0
LINE
  8
0
 10
7.76648
 20
132.696
 11
7.71352
 21
132.618
  0
LINE
  8
0
 10
7.71352
 20
132.618
 11
7.65576
 21
132.544
  0
LINE
  8
0
 10
7.65576
 20
132.544
 11
7.59344
 21
132.473
  0
LINE
  8
0
 10
7.59344
 20
132.473
 11
7.52681
 21
132.407
  0
LINE
  8
0
 10
7.52681
 20
132.407
 11
7.45613
 21
132.344
  0
LINE
  8
0
 10
7.45613
 20
132.344
 11
7.38167
 21
132.286
  0
LINE
  8
0
 10
7.38167
 20
132.286
 11
7.30373
 21
132.234
  0
LINE
  8
0
 10
7.30373
 20
132.234
 11
7.22263
 21
132.186
  0
LINE
  8
0
 10
7.22263
 20
132.186
 11
7.13866
 21
132.143
  0
LINE
  8
0
 10
7.13866
 20
132.143
 11
7.05219
 21
132.105
  0
LINE
  8
0
 10
7.05219
 20
132.105
 11
6.96352
 21
132.073
  0
LINE
  8
0
 10
6.96352
 20
132.073
 11
6.87303
 21
132.047
  0
LINE
  8
0
 10
6.87303
 20
132.047
 11
6.78107
 21
132.027
  0
LINE
  8
0
 10
6.78107
 20
132.027
 11
6.68799
 21
132.012
  0
LINE
  8
0
 10
6.68799
 20
132.012
 11
6.59418
 21
132.003
  0
LINE
  8
0
 10
6.59418
 20
132.003
 11
6.5
 21
132
  0
LINE
  8
0
 10
6.5
 20
132
 11
6.40581
 21
132.003
  0
LINE
  8
0
 10
358.406
 20
132.003
 11
358.312
 21
132.012
  0
LINE
  8
0
 10
358.312
 20
132.012
 11
358.219
 21
132.027
  0
LINE
  8
0
 10
358.219
 20
132.027
 11
358.127
 21
132.047
  0
LINE
  8
0
 10
358.127
 20
132.047
 11
358.036
 21
132.073
  0
LINE
  8
0
 10
358.036
 20
132.073
 11
357.948
 21
132.105
  0
LINE
  8
0
 10
357.948
 20
132.105
 11
357.861
 21
132.143
  0
LINE
  8
0
 10
357.861
 20
132.143
 11
357.777
 21
132.186
  0
LINE
  8
0
 10
357.777
 20
132.186
 11
357.696
 21
132.234
  0
LINE
  8
0
 10
357.696
 20
132.234
 11
357.618
 21
132.286
  0
LINE
  8
0
 10
357.618
 20
132.286
 11
357.544
 21
132.344
  0
LINE
  8
0
 10
357.544
 20
132.344
 11
357.473
 21
132.407
  0
LINE
  8
0
 10
357.473
 20
132.407
 11
357.407
 21
132.473
  0
LINE
  8
0
 10
357.407
 20
132.473
 11
357.344
 21
132.544
  0
LINE
  8
0
 10
357.344
 20
132.544
 11
357.286
 21
132.618
  0
LINE
  8
0
 10
357.286
 20
132.618
 11
357.234
 21
132.696
  0
LINE
  8
0
 10
357.234
 20
132.696
 11
357.186
 21
132.777
  0
LINE
  8
0
 10
357.186
 20
132.777
 11
357.143
 21
132.861
  0
LINE
  8
0
 10
357.143
 20
132.861
 11
357.105
 21
132.948
  0
LINE
  8
0
 10
357.105
 20
132.948
 11
357.073
 21
133.036
  0
LINE
  8
0
 10
357.073
 20
133.036
 11
357.047
 21
133.127
  0
LINE
  8
0
 10
357.047
 20
133.127
 11
357.027
 21
133.219
  0
LINE
  8
0
 10
357.027
 20
133.219
 11
357.012
 21
133.312
  0
LINE
  8
0
 10
357.012
 20
133.312
 11
357.003
 21
133.406
  0
LINE
  8
0
 10
357.003
 20
133.406
 11
357
 21
133.5
  0
LINE
  8
0
 10
357
 20
133.5
 11
357.003
 21
133.594
  0
LINE
  8
0
 10
357.003
 20
133.594
 11
357.012
 21
133.688
  0
LINE
  8
0
 10
357.012
 20
133.688
 11
357.027
 21
133.781
  0
LINE
  8
0
 10
357.027
 20
133.781
 11
357.047
 21
133.873
  0
LINE
  8
0
 10
357.047
 20
133.873
 11
357.073
 21
133.964
  0
LINE
  8
0
 10
357.073
 20
133.964
 11
357.105
 21
134.052
  0
LINE
  8
0
 10
357.105
 20
134.052
 11
357.143
 21
134.139
  0
LINE
  8
0
 10
357.143
 20
134.139
 11
357.186
 21
134.223
  0
LINE
  8
0
 10
357.186
 20
134.223
 11
357.234
 21
134.304
  0
LINE
  8
0
 10
357.234
 20
134.304
 11
357.286
 21
134.382
  0
LINE
  8
0
 10
357.286
 20
134.382
 11
357.344
 21
134.456
  0
LINE
  8
0
 10
357.344
 20
134.456
 11
357.407
 21
134.527
  0
LINE
  8
0
 10
357.407
 20
134.527
 11
357.473
 21
134.593
  0
LINE
  8
0
 10
357.473
 20
134.593
 11
357.544
 21
134.656
  0
LINE
  8
0
 10
357.544
 20
134.656
 11
357.618
 21
134.714
  0
LINE
  8
0
 10
357.618
 20
134.714
 11
357.696
 21
134.766
  0
LINE
  8
0
 10
357.696
 20
134.766
 11
357.777
 21
134.814
  0
LINE
  8
0
 10
357.777
 20
134.814
 11
357.861
 21
134.857
  0
LINE
  8
0
 10
357.861
 20
134.857
 11
357.948
 21
134.895
  0
LINE
  8
0
 10
357.948
 20
134.895
 11
358.036
 21
134.927
  0
LINE
  8
0
 10
358.036
 20
134.927
 11
358.127
 21
134.953
  0
LINE
  8
0
 10
358.127
 20
134.953
 11
358.219
 21
134.973
  0
LINE
  8
0
 10
358.219
 20
134.973
 11
358.312
 21
134.988
  0
LINE
  8
0
 10
358.312
 20
134.988
 11
358.406
 21
134.997
  0
LINE
  8
0
 10
358.406
 20
134.997
 11
358.5
 21
135
  0
LINE
  8
0
 10
358.5
 20
135
 11
358.594
 21
134.997
  0
LINE
  8
0
 10
358.594
 20
134.997
 11
358.688
 21
134.988
  0
LINE
  8
0
 10
358.688
 20
134.988
 11
358.781
 21
134.973
  0
LINE
  8
0
 10
358.781
 20
134.973
 11
358.873
 21
134.953
  0
LINE
  8
0
 10
358.873
 20
134.953
 11
358.964
 21
134.927
  0
LINE
  8
0
 10
358.964
 20
134.927
 11
359.052
 21
134.895
  0
LINE
  8
0
 10
359.052
 20
134.895
 11
359.139
 21
134.857
  0
LINE
  8
0
 10
359.139
 20
134.857
 11
359.223
 21
134.814
  0
LINE
  8
0
 10
359.223
 20
134.814
 11
359.304
 21
134.766
  0
LINE
  8
0
 10
359.304
 20
134.766
 11
359.382
 21
134.714
  0
LINE
  8
0
 10
359.382
 20
134.714
 11
359.456
 21
134.656
  0
LINE
  8
0
 10
359.456
 20
134.656
 11
359.527
 21
134.593
  0
LINE
  8
0
 10
359.527
 20
134.593
 11
359.593
 21
134.527
  0
LINE
  8
0
 10
359.593
 20
134.527
 11
359.656
 21
134.456
  0
LINE
  8
0
 10
359.656
 20
134.456
 11
359.714
 21
134.382
  0
LINE
  8
0
 10
359.714
 20
134.382
 11
359.766
 21
134.304
  0
LINE
  8
0
 10
359.766
 20
134.304
 11
359.814
 21
134.223
  0
LINE
  8
0
 10
359.814
 20
134.223
 11
359.857
 21
134.139
  0
LINE
  8
0
 10
359.857
 20
134.139
 11
359.895
 21
134.052
  0
LINE
  8
0
 10
359.895
 20
134.052
 11
359.927
 21
133.964
  0
LINE
  8
0
 10
359.927
 20
133.964
 11
359.953
 21
133.873
  0
LINE
  8
0
 10
359.953
 20
133.873
 11
359.973
 21
133.781
  0
LINE
  8
0
 10
359.973
 20
133.781
 11
359.988
 21
133.688
  0
LINE
  8
0
 10
359.988
 20
133.688
 11
359.997
 21
133.594
  0
LINE
  8
0
 10
359.997
 20
133.594
 11
360
 21
133.5
  0
LINE
  8
0
 10
360
 20
133.5
 11
359.997
 21
133.406
  0
LINE
  8
0
 10
359.997
 20
133.406
 11
359.988
 21
133.312
  0
LINE
  8
0
 10
359.988
 20
133.312
 11
359.973
 21
133.219
  0
LINE
  8
0
 10
359.973
 20
133.219
 11
359.953
 21
133.127
  0
LINE
  8
0
 10
359.953
 20
133.127
 11
359.927
 21
133.036
  0
LINE
  8
0
 10
359.927
 20
133.036
 11
359.895
 21
132.948
  0
LINE
  8
0
 10
359.895
 20
132.948
 11
359.857
 21
132.861
  0
LINE
  8
0
 10
359.857
 20
132.861
 11
359.814
 21
132.777
  0
LINE
  8
0
 10
359.814
 20
132.777
 11
359.766
 21
132.696
  0
LINE
  8
0
 10
359.766
 20
132.696
 11
359.714
 21
132.618
  0
LINE
  8
0
 10
359.714
 20
132.618
 11
359.656
 21
132.544
  0
LINE
  8
0
 10
359.656
 20
132.544
 11
359.593
 21
132.473
  0
LINE
  8
0
 10
359.593
 20
132.473
 11
359.527
 21
132.407
  0
LINE
  8
0
 10
359.527
 20
132.407
 11
359.456
 21
132.344
  0
LINE
  8
0
 10
359.456
 20
132.344
 11
359.382
 21
132.286
  0
LINE
  8
0
 10
359.382
 20
132.286
 11
359.304
 21
132.234
  0
LINE
  8
0
 10
359.304
 20
132.234
 11
359.223
 21
132.186
  0
LINE
  8
0
 10
359.223
 20
132.186
 11
359.139
 21
132.143
  0
LINE
  8
0
 10
359.139
 20
132.143
 11
359.052
 21
132.105
  0
LINE
  8
0
 10
359.052
 20
132.105
 11
358.964
 21
132.073
  0
LINE
  8
0
 10
358.964
 20
132.073
 11
358.873
 21
132.047
  0
LINE
  8
0
 10
358.873
 20
132.047
 11
358.781
 21
132.027
  0
LINE
  8
0
 10
358.781
 20
132.027
 11
358.688
 21
132.012
  0
LINE
  8
0
 10
358.688
 20
132.012
 11
358.594
 21
132.003
  0
LINE
  8
0
 10
358.594
 20
132.003
 11
358.5
 21
132
  0
LINE
  8
0
 10
358.5
 20
132
 11
358.406
 21
132.003
  0
LINE
  8
0
 10
4
 20
47.8333
 11
4
 21
90.6667
  0
LINE
  8
0
 10
4
 20
90.6667
 11
9
 21
90.6667
  0
LINE
  8
0
 10
9
 20
90.6667
 11
9
 21
47.8333
  0
LINE
  8
0
 10
9
 20
47.8333
 11
4
 21
47.8333
  0
LINE
  8
0
 10
356
 20
47.8333
 11
356
 21
90.6667
  0
LINE
  8
0
 10
356
 20
90.6667
 11
361
 21
90.6667
  0
LINE
  8
0
 10
361
 20
90.6667
 11
361
 21
47.8333
  0
LINE
  8
0
 10
361
 20
47.8333
 11
356
 21
47.8333
  0
LINE
  8
0
 10
64.1667
 20
4
 11
64.1667
 21
9
  0
LINE
  8
0
 10
64.1667
 20
9
 11
123.333
 21
9
  0
LINE
  8
0
 10
123.333
 20
9
 11
123.333
 21
4
  0
LINE
  8
0
 10
123.333
 20
4
 11
64.1667
 21
4
  0
LINE
  8
0
 10
241.667
 20
4
 11
241.667
 21
9
  0
LINE
  8
0
 10
241.667
 20
9
 11
300.833
 21
9
  0
LINE
  8
0
 10
300.833
 20
9
 11
300.833
 21
4
  0
LINE
  8
0
 10
300.833
 20
4
 11
241.667
 21
4
  0
LINE
  8
0
 10
182.406
 20
5.00294
 11
182.312
 21
5.01183
  0
LINE
  8
0
 10
182.312
 20
5.01183
 11
182.219
 21
5.02657
  0
LINE
  8
0
 10
182.219
 20
5.02657
 11
182.127
 21
5.04712
  0
LINE
  8
0
 10
182.127
 20
5.04712
 11
182.036
 21
5.07341
  0
LINE
  8
0
 10
182.036
 20
5.07341
 11
181.948
 21
5.10533
  0
LINE
  8
0
 10
181.948
 20
5.10533
 11
181.861
 21
5.14275
  0
LINE
  8
0
 10
181.861
 20
5.14275
 11
181.777
 21
5.18553
  0
LINE
  8
0
 10
181.777
 20
5.18553
 11
181.696
 21
5.23351
  0
LINE
  8
0
 10
181.696
 20
5.23351
 11
181.618
 21
5.28647
  0
LINE
  8
0
 10
181.618
 20
5.28647
 11
181.544
 21
5.34422
  0
LINE
  8
0
 10
181.544
 20
5.34422
 11
181.473
 21
5.40654
  0
LINE
  8
0
 10
181.473
 20
5.40654
 11
181.407
 21
5.47318
  0
LINE
  8
0
 10
181.407
 20
5.47318
 11
181.344
 21
5.54385
  0
LINE
  8
0
 10
181.344
 20
5.54385
 11
181.286
 21
5.61832
  0
LINE
  8
0
 10
181.286
 20
5.61832
 11
181.234
 21
5.69626
  0
LINE
  8
0
 10
181.234
 20
5.69626
 11
181.186
 21
5.77736
  0
LINE
  8
0
 10
181.186
 20
5.77736
 11
181.143
 21
5.86133
  0
LINE
  8
0
 10
181.143
 20
5.86133
 11
181.105
 21
5.9478
  0
LINE
  8
0
 10
181.105
 20
5.9478
 11
181.073
 21
6.03647
  0
LINE
  8
0
 10
181.073
 20
6.03647
 11
181.047
 21
6.12695
  0
LINE
  8
0
 10
181.047
 20
6.12695
 11
181.027
 21
6.21892
  0
LINE
  8
0
 10
181.027
 20
6.21892
 11
181.012
 21
6.312
  0
LINE
  8
0
 10
181.012
 20
6.312
 11
181.003
 21
6.40581
  0
LINE
  8
0
 10
181.003
 20
6.40581
 11
181
 21
6.5
  0
LINE
  8
0
 10
181
 20
6.5
 11
181.003
 21
6.59418
  0
LINE
  8
0
 10
181.003
 20
6.59418
 11
181.012
 21
6.68799
  0
LINE
  8
0
 10
181.012
 20
6.68799
 11
181.027
 21
6.78107
  0
LINE
  8
0
 10
181.027
 20
6.78107
 11
181.047
 21
6.87303
  0
LINE
  8
0
 10
181.047
 20
6.87303
 11
181.073
 21
6.96352
  0
LINE
  8
0
 10
181.073
 20
6.96352
 11
181.105
 21
7.05219
  0
LINE
  8
0
 10
181.105
 20
7.05219
 11
181.143
 21
7.13866
  0
LINE
  8
0
 10
181.143
 20
7.13866
 11
181.186
 21
7.22263
  0
LINE
  8
0
 10
181.186
 20
7.22263
 11
181.234
 21
7.30373
  0
LINE
  8
0
 10
181.234
 20
7.30373
 11
181.286
 21
7.38167
  0
LINE
  8
0
 10
181.286
 20
7.38167
 11
181.344
 21
7.45613
  0
LINE
  8
0
 10
181.344
 20
7.45613
 11
181.407
 21
7.52681
  0
LINE
  8
0
 10
181.407
 20
7.52681
 11
181.473
 21
7.59344
  0
LINE
  8
0
 10
181.473
 20
7.59344
 11
181.544
 21
7.65576
  0
LINE
  8
0
 10
181.544
 20
7.65576
 11
181.618
 21
7.71352
  0
LINE
  8
0
 10
181.618
 20
7.71352
 11
181.696
 21
7.76648
  0
LINE
  8
0
 10
181.696
 20
7.76648
 11
181.777
 21
7.81445
  0
LINE
  8
0
 10
181.777
 20
7.81445
 11
181.861
 21
7.85724
  0
LINE
  8
0
 10
181.861
 20
7.85724
 11
181.948
 21
7.89465
  0
LINE
  8
0
 10
181.948
 20
7.89465
 11
182.036
 21
7.92657
  0
LINE
  8
0
 10
182.036
 20
7.92657
 11
182.127
 21
7.95287
  0
LINE
  8
0
 10
182.127
 20
7.95287
 11
182.219
 21
7.97342
  0
LINE
  8
0
 10
182.219
 20
7.97342
 11
182.312
 21
7.98816
  0
LINE
  8
0
 10
182.312
 20
7.98816
 11
182.406
 21
7.99704
  0
LINE
  8
0
 10
182.406
 20
7.99704
 11
182.5
 21
8
  0
LINE
  8
0
 10
182.5
 20
8
 11
182.594
 21
7.99704
  0
LINE
  8
0
 10
182.594
 20
7.99704
 11
182.688
 21
7.98816
  0
LINE
  8
0
 10
182.688
 20
7.98816
 11
182.781
 21
7.97342
  0
LINE
  8
0
 10
182.781
 20
7.97342
 11
182.873
 21
7.95287
  0
LINE
  8
0
 10
182.873
 20
7.95287
 11
182.964
 21
7.92657
  0
LINE
  8
0
 10
182.964
 20
7.92657
 11
183.052
 21
7.89465
  0
LINE
  8
0
 10
183.052
 20
7.89465
 11
183.139
 21
7.85724
  0
LINE
  8
0
 10
183.139
 20
7.85724
 11
183.223
 21
7.81445
  0
LINE
  8
0
 10
183.223
 20
7.81445
 11
183.304
 21
7.76648
  0
LINE
  8
0
 10
183.304
 20
7.76648
 11
183.382
 21
7.71352
  0
LINE
  8
0
 10
183.382
 20
7.71352
 11
183.456
 21
7.65576
  0
LINE
  8
0
 10
183.456
 20
7.65576
 11
183.527
 21
7.59344
  0
LINE
  8
0
 10
183.527
 20
7.59344
 11
183.593
 21
7.52681
  0
LINE
  8
0
 10
183.593
 20
7.52681
 11
183.656
 21
7.45613
  0
LINE
  8
0
 10
183.656
 20
7.45613
 11
183.714
 21
7.38167
  0
LINE
  8
0
 10
183.714
 20
7.38167
 11
183.766
 21
7.30373
  0
LINE
  8
0
 10
183.766
 20
7.30373
 11
183.814
 21
7.22263
  0
LINE
  8
0
 10
183.814
 20
7.22263
 11
183.857
 21
7.13866
  0
LINE
  8
0
 10
183.857
 20
7.13866
 11
183.895
 21
7.05219
  0
LINE
  8
0
 10
183.895
 20
7.05219
 11
183.927
 21
6.96352
  0
LINE
  8
0
 10
183.927
 20
6.96352
 11
183.953
 21
6.87303
  0
LINE
  8
0
 10
183.953
 20
6.87303
 11
183.973
 21
6.78107
  0
LINE
  8
0
 10
183.973
 20
6.78107
 11
183.988
 21
6.68799
  0
LINE
  8
0
 10
183.988
 20
6.68799
 11
183.997
 21
6.59418
  0
LINE
  8
0
 10
183.997
 20
6.59418
 11
184
 21
6.5
  0
LINE
  8
0
 10
184
 20
6.5
 11
183.997
 21
6.40581
  0
LINE
  8
0
 10
183.997
 20
6.40581
 11
183.988
 21
6.312
  0
LINE
  8
0
 10
183.988
 20
6.312
 11
183.973
 21
6.21892
  0
LINE
  8
0
 10
183.973
 20
6.21892
 11
183.953
 21
6.12695
  0
LINE
  8
0
 10
183.953
 20
6.12695
 11
183.927
 21
6.03647
  0
LINE
  8
0
 10
183.927
 20
6.03647
 11
183.895
 21
5.9478
  0
LINE
  8
0
 10
183.895
 20
5.9478
 11
183.857
 21
5.86133
  0
LINE
  8
0
 10
183.857
 20
5.86133
 11
183.814
 21
5.77736
  0
LINE
  8
0
 10
183.814
 20
5.77736
 11
183.766
 21
5.69626
  0
LINE
  8
0
 10
183.766
 20
5.69626
 11
183.714
 21
5.61832
  0
LINE
  8
0
 10
183.714
 20
5.61832
 11
183.656
 21
5.54385
  0
LINE
  8
0
 10
183.656
 20
5.54385
 11
183.593
 21
5.47318
  0
LINE
  8
0
 10
183.593
 20
5.47318
 11
183.527
 21
5.40654
  0
LINE
  8
0
 10
183.527
 20
5.40654
 11
183.456
 21
5.34422
  0
LINE
  8
0
 10
183.456
 20
5.34422
 11
183.382
 21
5.28647
  0
LINE
  8
0
 10
183.382
 20
5.28647
 11
183.304
 21
5.23351
  0
LINE
  8
0
 10
183.304
 20
5.23351
 11
183.223
 21
5.18553
  0
LINE
  8
0
 10
183.223
 20
5.18553
 11
183.139
 21
5.14275
  0
LINE
  8
0
 10
183.139
 20
5.14275
 11
183.052
 21
5.10533
  0
LINE
  8
0
 10
183.052
 20
5.10533
 11
182.964
 21
5.07341
  0
LINE
  8
0
 10
182.964
 20
5.07341
 11
182.873
 21
5.04712
  0
LINE
  8
0
 10
182.873
 20
5.04712
 11
182.781
 21
5.02657
  0
LINE
  8
0
 10
182.781
 20
5.02657
 11
182.688
 21
5.01183
  0
LINE
  8
0
 10
182.688
 20
5.01183
 11
182.594
 21
5.00294
  0
LINE
  8
0
 10
182.594
 20
5.00294
 11
182.5
 21
5
  0
LINE
  8
0
 10
182.5
 20
5
 11
182.406
 21
5.00294
  0
ENDSEC
  0
SECTION
  2
OBJECTS
  0
DICTIONARY
  0
ENDSEC
  0
EOF
