  0
SECTION
  2
BLOCKS
  0
ENDSEC
  0
SECTION
  2
ENTITIES
  0
LINE
  8
0
 10
90.6667
 20
163.99
 11
132
 21
163.99
  0
LINE
  8
0
 10
132
 20
163.99
 11
132
 21
169
  0
LINE
  8
0
 10
132
 20
169
 11
130.7
 21
169
  0
LINE
  8
0
 10
130.7
 20
169
 11
130.7
 21
171.1
  0
LINE
  8
0
 10
130.7
 20
171.1
 11
132
 21
171.1
  0
LINE
  8
0
 10
132
 20
171.1
 11
132
 21
174
  0
LINE
  8
0
 10
132
 20
174
 11
135
 21
174
  0
LINE
  8
0
 10
135
 20
174
 11
135
 21
171.1
  0
LINE
  8
0
 10
135
 20
171.1
 11
136.3
 21
171.1
  0
LINE
  8
0
 10
136.3
 20
171.1
 11
136.3
 21
169
  0
LINE
  8
0
 10
136.3
 20
169
 11
135
 21
169
  0
LINE
  8
0
 10
135
 20
169
 11
135
 21
163.99
  0
LINE
  8
0
 10
135
 20
163.99
 11
176.333
 21
163.99
  0
LINE
  8
0
 10
176.333
 20
163.99
 11
176.333
 21
159
  0
LINE
  8
0
 10
176.333
 20
159
 11
219.167
 21
159
  0
LINE
  8
0
 10
219.167
 20
159
 11
219.167
 21
163.99
  0
LINE
  8
0
 10
219.167
 20
163.99
 11
258.01
 21
163.99
  0
LINE
  8
0
 10
258.01
 20
163.99
 11
258.01
 21
170.667
  0
LINE
  8
0
 10
258.01
 20
170.667
 11
263
 21
170.667
  0
LINE
  8
0
 10
263
 20
170.667
 11
263
 21
177.333
  0
LINE
  8
0
 10
263
 20
177.333
 11
258.01
 21
177.333
  0
LINE
  8
0
 10
258.01
 20
177.333
 11
258.01
 21
190.667
  0
LINE
  8
0
 10
258.01
 20
190.667
 11
263
 21
190.667
  0
LINE
  8
0
 10
263
 20
190.667
 11
263
 21
197.333
  0
LINE
  8
0
 10
263
 20
197.333
 11
258.01
 21
197.333
  0
LINE
  8
0
 10
258.01
 20
197.333
 11
258.01
 21
204.01
  0
LINE
  8
0
 10
258.01
 20
204.01
 11
219.167
 21
204.01
  0
LINE
  8
0
 10
219.167
 20
204.01
 11
219.167
 21
209
  0
LINE
  8
0
 10
219.167
 20
209
 11
176.333
 21
209
  0
LINE
  8
0
 10
176.333
 20
209
 11
176.333
 21
204.01
  0
LINE
  8
0
 10
176.333
 20
204.01
 11
90.6667
 21
204.01
  0
LINE
  8
0
 10
90.6667
 20
204.01
 11
90.6667
 21
209
  0
LINE
  8
0
 10
90.6667
 20
209
 11
47.8333
 21
209
  0
LINE
  8
0
 10
47.8333
 20
209
 11
47.8333
 21
204.01
  0
LINE
  8
0
 10
47.8333
 20
204.01
 11
8.98999
 21
204.01
  0
LINE
  8
0
 10
8.98999
 20
204.01
 11
8.98999
 21
197.333
  0
LINE
  8
0
 10
8.98999
 20
197.333
 11
4
 21
197.333
  0
LINE
  8
0
 10
4
 20
197.333
 11
4
 21
190.667
  0
LINE
  8
0
 10
4
 20
190.667
 11
8.98999
 21
190.667
  0
LINE
  8
0
 10
8.98999
 20
190.667
 11
8.98999
 21
177.333
  0
LINE
  8
0
 10
8.98999
 20
177.333
 11
4
 21
177.333
  0
LINE
  8
0
 10
4
 20
177.333
 11
4
 21
170.667
  0
LINE
  8
0
 10
4
 20
170.667
 11
8.98999
 21
170.667
  0
LINE
  8
0
 10
8.98999
 20
170.667
 11
8.98999
 21
163.99
  0
LINE
  8
0
 10
8.98999
 20
163.99
 11
47.8333
 21
163.99
  0
LINE
  8
0
 10
47.8333
 20
163.99
 11
47.8333
 21
159
  0
LINE
  8
0
 10
47.8333
 20
159
 11
90.6667
 21
159
  0
LINE
  8
0
 10
90.6667
 20
159
 11
90.6667
 21
163.99
  0
LINE
  8
0
 10
90.6667
 20
110.99
 11
132
 21
110.99
  0
LINE
  8
0
 10
132
 20
110.99
 11
132
 21
116
  0
LINE
  8
0
 10
132
 20
116
 11
130.7
 21
116
  0
LINE
  8
0
 10
130.7
 20
116
 11
130.7
 21
118.1
  0
LINE
  8
0
 10
130.7
 20
118.1
 11
132
 21
118.1
  0
LINE
  8
0
 10
132
 20
118.1
 11
132
 21
121
  0
LINE
  8
0
 10
132
 20
121
 11
135
 21
121
  0
LINE
  8
0
 10
135
 20
121
 11
135
 21
118.1
  0
LINE
  8
0
 10
135
 20
118.1
 11
136.3
 21
118.1
  0
LINE
  8
0
 10
136.3
 20
118.1
 11
136.3
 21
116
  0
LINE
  8
0
 10
136.3
 20
116
 11
135
 21
116
  0
LINE
  8
0
 10
135
 20
116
 11
135
 21
110.99
  0
LINE
  8
0
 10
135
 20
110.99
 11
176.333
 21
110.99
  0
LINE
  8
0
 10
176.333
 20
110.99
 11
176.333
 21
106
  0
LINE
  8
0
 10
176.333
 20
106
 11
219.167
 21
106
  0
LINE
  8
0
 10
219.167
 20
106
 11
219.167
 21
110.99
  0
LINE
  8
0
 10
219.167
 20
110.99
 11
258.01
 21
110.99
  0
LINE
  8
0
 10
258.01
 20
110.99
 11
258.01
 21
117.667
  0
LINE
  8
0
 10
258.01
 20
117.667
 11
263
 21
117.667
  0
LINE
  8
0
 10
263
 20
117.667
 11
263
 21
124.333
  0
LINE
  8
0
 10
263
 20
124.333
 11
258.01
 21
124.333
  0
LINE
  8
0
 10
258.01
 20
124.333
 11
258.01
 21
137.667
  0
LINE
  8
0
 10
258.01
 20
137.667
 11
263
 21
137.667
  0
LINE
  8
0
 10
263
 20
137.667
 11
263
 21
144.333
  0
LINE
  8
0
 10
263
 20
144.333
 11
258.01
 21
144.333
  0
LINE
  8
0
 10
258.01
 20
144.333
 11
258.01
 21
151.01
  0
LINE
  8
0
 10
258.01
 20
151.01
 11
219.167
 21
151.01
  0
LINE
  8
0
 10
219.167
 20
151.01
 11
219.167
 21
156
  0
LINE
  8
0
 10
219.167
 20
156
 11
176.333
 21
156
  0
LINE
  8
0
 10
176.333
 20
156
 11
176.333
 21
151.01
  0
LINE
  8
0
 10
176.333
 20
151.01
 11
90.6667
 21
151.01
  0
LINE
  8
0
 10
90.6667
 20
151.01
 11
90.6667
 21
156
  0
LINE
  8
0
 10
90.6667
 20
156
 11
47.8333
 21
156
  0
LINE
  8
0
 10
47.8333
 20
156
 11
47.8333
 21
151.01
  0
LINE
  8
0
 10
47.8333
 20
151.01
 11
8.98999
 21
151.01
  0
LINE
  8
0
 10
8.98999
 20
151.01
 11
8.98999
 21
144.333
  0
LINE
  8
0
 10
8.98999
 20
144.333
 11
4
 21
144.333
  0
LINE
  8
0
 10
4
 20
144.333
 11
4
 21
137.667
  0
LINE
  8
0
 10
4
 20
137.667
 11
8.98999
 21
137.667
  0
LINE
  8
0
 10
8.98999
 20
137.667
 11
8.98999
 21
124.333
  0
LINE
  8
0
 10
8.98999
 20
124.333
 11
4
 21
124.333
  0
LINE
  8
0
 10
4
 20
124.333
 11
4
 21
117.667
  0
LINE
  8
0
 10
4
 20
117.667
 11
8.98999
 21
117.667
  0
LINE
  8
0
 10
8.98999
 20
117.667
 11
8.98999
 21
110.99
  0
LINE
  8
0
 10
8.98999
 20
110.99
 11
47.8333
 21
110.99
  0
LINE
  8
0
 10
47.8333
 20
110.99
 11
47.8333
 21
106
  0
LINE
  8
0
 10
47.8333
 20
106
 11
90.6667
 21
106
  0
LINE
  8
0
 10
90.6667
 20
106
 11
90.6667
 21
110.99
  0
LINE
  8
0
 10
123.333
 20
57.99
 11
147.5
 21
57.99
  0
LINE
  8
0
 10
147.5
 20
57.99
 11
147.5
 21
60.5
  0
LINE
  8
0
 10
147.5
 20
60.5
 11
147.505
 21
60.657
  0
LINE
  8
0
 10
147.505
 20
60.657
 11
147.52
 21
60.8133
  0
LINE
  8
0
 10
147.52
 20
60.8133
 11
147.544
 21
60.9684
  0
LINE
  8
0
 10
147.544
 20
60.9684
 11
147.579
 21
61.1217
  0
LINE
  8
0
 10
147.579
 20
61.1217
 11
147.622
 21
61.2725
  0
LINE
  8
0
 10
147.622
 20
61.2725
 11
147.676
 21
61.4203
  0
LINE
  8
0
 10
147.676
 20
61.4203
 11
147.738
 21
61.5644
  0
LINE
  8
0
 10
147.738
 20
61.5644
 11
147.809
 21
61.7044
  0
LINE
  8
0
 10
147.809
 20
61.7044
 11
147.889
 21
61.8396
  0
LINE
  8
0
 10
147.889
 20
61.8396
 11
147.977
 21
61.9695
  0
LINE
  8
0
 10
147.977
 20
61.9695
 11
148.074
 21
62.0936
  0
LINE
  8
0
 10
148.074
 20
62.0936
 11
148.178
 21
62.2114
  0
LINE
  8
0
 10
148.178
 20
62.2114
 11
148.289
 21
62.3224
  0
LINE
  8
0
 10
148.289
 20
62.3224
 11
148.406
 21
62.4263
  0
LINE
  8
0
 10
148.406
 20
62.4263
 11
148.531
 21
62.5225
  0
LINE
  8
0
 10
148.531
 20
62.5225
 11
148.66
 21
62.6108
  0
LINE
  8
0
 10
148.66
 20
62.6108
 11
148.796
 21
62.6908
  0
LINE
  8
0
 10
148.796
 20
62.6908
 11
148.936
 21
62.7621
  0
LINE
  8
0
 10
148.936
 20
62.7621
 11
149.08
 21
62.8244
  0
LINE
  8
0
 10
149.08
 20
62.8244
 11
149.227
 21
62.8776
  0
LINE
  8
0
 10
149.227
 20
62.8776
 11
149.378
 21
62.9214
  0
LINE
  8
0
 10
149.378
 20
62.9214
 11
149.532
 21
62.9557
  0
LINE
  8
0
 10
149.532
 20
62.9557
 11
149.687
 21
62.9803
  0
LINE
  8
0
 10
149.687
 20
62.9803
 11
149.843
 21
62.9951
  0
LINE
  8
0
 10
149.843
 20
62.9951
 11
150
 21
63
  0
LINE
  8
0
 10
150
 20
63
 11
150.157
 21
62.9951
  0
LINE
  8
0
 10
150.157
 20
62.9951
 11
150.313
 21
62.9803
  0
LINE
  8
0
 10
150.313
 20
62.9803
 11
150.468
 21
62.9557
  0
LINE
  8
0
 10
150.468
 20
62.9557
 11
150.622
 21
62.9214
  0
LINE
  8
0
 10
150.622
 20
62.9214
 11
150.773
 21
62.8776
  0
LINE
  8
0
 10
150.773
 20
62.8776
 11
150.92
 21
62.8244
  0
LINE
  8
0
 10
150.92
 20
62.8244
 11
151.064
 21
62.7621
  0
LINE
  8
0
 10
151.064
 20
62.7621
 11
151.204
 21
62.6908
  0
LINE
  8
0
 10
151.204
 20
62.6908
 11
151.34
 21
62.6108
  0
LINE
  8
0
 10
151.34
 20
62.6108
 11
151.469
 21
62.5225
  0
LINE
  8
0
 10
151.469
 20
62.5225
 11
151.594
 21
62.4263
  0
LINE
  8
0
 10
151.594
 20
62.4263
 11
151.711
 21
62.3224
  0
LINE
  8
0
 10
151.711
 20
62.3224
 11
151.822
 21
62.2114
  0
LINE
  8
0
 10
151.822
 20
62.2114
 11
151.926
 21
62.0936
  0
LINE
  8
0
 10
151.926
 20
62.0936
 11
152.023
 21
61.9695
  0
LINE
  8
0
 10
152.023
 20
61.9695
 11
152.111
 21
61.8396
  0
LINE
  8
0
 10
152.111
 20
61.8396
 11
152.191
 21
61.7044
  0
LINE
  8
0
 10
152.191
 20
61.7044
 11
152.262
 21
61.5644
  0
LINE
  8
0
 10
152.262
 20
61.5644
 11
152.324
 21
61.4203
  0
LINE
  8
0
 10
152.324
 20
61.4203
 11
152.378
 21
61.2725
  0
LINE
  8
0
 10
152.378
 20
61.2725
 11
152.421
 21
61.1217
  0
LINE
  8
0
 10
152.421
 20
61.1217
 11
152.456
 21
60.9684
  0
LINE
  8
0
 10
152.456
 20
60.9684
 11
152.48
 21
60.8133
  0
LINE
  8
0
 10
152.48
 20
60.8133
 11
152.495
 21
60.657
  0
LINE
  8
0
 10
152.495
 20
60.657
 11
152.5
 21
60.5
  0
LINE
  8
0
 10
152.5
 20
60.5
 11
152.5
 21
57.99
  0
LINE
  8
0
 10
152.5
 20
57.99
 11
181
 21
57.99
  0
LINE
  8
0
 10
181
 20
57.99
 11
181
 21
63
  0
LINE
  8
0
 10
181
 20
63
 11
179.7
 21
63
  0
LINE
  8
0
 10
179.7
 20
63
 11
179.7
 21
65.1
  0
LINE
  8
0
 10
179.7
 20
65.1
 11
181
 21
65.1
  0
LINE
  8
0
 10
181
 20
65.1
 11
181
 21
68
  0
LINE
  8
0
 10
181
 20
68
 11
184
 21
68
  0
LINE
  8
0
 10
184
 20
68
 11
184
 21
65.1
  0
LINE
  8
0
 10
184
 20
65.1
 11
185.3
 21
65.1
  0
LINE
  8
0
 10
185.3
 20
65.1
 11
185.3
 21
63
  0
LINE
  8
0
 10
185.3
 20
63
 11
184
 21
63
  0
LINE
  8
0
 10
184
 20
63
 11
184
 21
57.99
  0
LINE
  8
0
 10
184
 20
57.99
 11
241.667
 21
57.99
  0
LINE
  8
0
 10
241.667
 20
57.99
 11
241.667
 21
53
  0
LINE
  8
0
 10
241.667
 20
53
 11
300.833
 21
53
  0
LINE
  8
0
 10
300.833
 20
53
 11
300.833
 21
57.99
  0
LINE
  8
0
 10
300.833
 20
57.99
 11
361
 21
57.99
  0
LINE
  8
0
 10
361
 20
57.99
 11
361
 21
64.6667
  0
LINE
  8
0
 10
361
 20
64.6667
 11
356.01
 21
64.6667
  0
LINE
  8
0
 10
356.01
 20
64.6667
 11
356.01
 21
71.3333
  0
LINE
  8
0
 10
356.01
 20
71.3333
 11
361
 21
71.3333
  0
LINE
  8
0
 10
361
 20
71.3333
 11
361
 21
84.6667
  0
LINE
  8
0
 10
361
 20
84.6667
 11
356.01
 21
84.6667
  0
LINE
  8
0
 10
356.01
 20
84.6667
 11
356.01
 21
91.3333
  0
LINE
  8
0
 10
356.01
 20
91.3333
 11
361
 21
91.3333
  0
LINE
  8
0
 10
361
 20
91.3333
 11
361
 21
98.01
  0
LINE
  8
0
 10
361
 20
98.01
 11
300.833
 21
98.01
  0
LINE
  8
0
 10
300.833
 20
98.01
 11
300.833
 21
103
  0
LINE
  8
0
 10
300.833
 20
103
 11
241.667
 21
103
  0
LINE
  8
0
 10
241.667
 20
103
 11
241.667
 21
98.01
  0
LINE
  8
0
 10
241.667
 20
98.01
 11
123.333
 21
98.01
  0
LINE
  8
0
 10
123.333
 20
98.01
 11
123.333
 21
103
  0
LINE
  8
0
 10
123.333
 20
103
 11
64.1667
 21
103
  0
LINE
  8
0
 10
64.1667
 20
103
 11
64.1667
 21
98.01
  0
LINE
  8
0
 10
64.1667
 20
98.01
 11
4
 21
98.01
  0
LINE
  8
0
 10
4
 20
98.01
 11
4
 21
91.3333
  0
LINE
  8
0
 10
4
 20
91.3333
 11
8.98999
 21
91.3333
  0
LINE
  8
0
 10
8.98999
 20
91.3333
 11
8.98999
 21
84.6667
  0
LINE
  8
0
 10
8.98999
 20
84.6667
 11
4
 21
84.6667
  0
LINE
  8
0
 10
4
 20
84.6667
 11
4
 21
71.3333
  0
LINE
  8
0
 10
4
 20
71.3333
 11
8.98999
 21
71.3333
  0
LINE
  8
0
 10
8.98999
 20
71.3333
 11
8.98999
 21
64.6667
  0
LINE
  8
0
 10
8.98999
 20
64.6667
 11
4
 21
64.6667
  0
LINE
  8
0
 10
4
 20
64.6667
 11
4
 21
57.99
  0
LINE
  8
0
 10
4
 20
57.99
 11
64.1667
 21
57.99
  0
LINE
  8
0
 10
64.1667
 20
57.99
 11
64.1667
 21
53
  0
LINE
  8
0
 10
64.1667
 20
53
 11
123.333
 21
53
  0
LINE
  8
0
 10
123.333
 20
53
 11
123.333
 21
57.99
  0
LINE
  8
0
 10
123.333
 20
4.98999
 11
181
 21
4.98999
  0
LINE
  8
0
 10
181
 20
4.98999
 11
181
 21
10
  0
LINE
  8
0
 10
181
 20
10
 11
179.7
 21
10
  0
LINE
  8
0
 10
179.7
 20
10
 11
179.7
 21
12.1
  0
LINE
  8
0
 10
179.7
 20
12.1
 11
181
 21
12.1
  0
LINE
  8
0
 10
181
 20
12.1
 11
181
 21
15
  0
LINE
  8
0
 10
181
 20
15
 11
184
 21
15
  0
LINE
  8
0
 10
184
 20
15
 11
184
 21
12.1
  0
LINE
  8
0
 10
184
 20
12.1
 11
185.3
 21
12.1
  0
LINE
  8
0
 10
185.3
 20
12.1
 11
185.3
 21
10
  0
LINE
  8
0
 10
185.3
 20
10
 11
184
 21
10
  0
LINE
  8
0
 10
184
 20
10
 11
184
 21
4.98999
  0
LINE
  8
0
 10
184
 20
4.98999
 11
241.667
 21
4.98999
  0
LINE
  8
0
 10
241.667
 20
4.98999
 11
241.667
 21
0
  0
LINE
  8
0
 10
241.667
 20
0
 11
300.833
 21
0
  0
LINE
  8
0
 10
300.833
 20
0
 11
300.833
 21
4.98999
  0
LINE
  8
0
 10
300.833
 20
4.98999
 11
361
 21
4.98999
  0
LINE
  8
0
 10
361
 20
4.98999
 11
361
 21
11.6667
  0
LINE
  8
0
 10
361
 20
11.6667
 11
356.01
 21
11.6667
  0
LINE
  8
0
 10
356.01
 20
11.6667
 11
356.01
 21
18.3333
  0
LINE
  8
0
 10
356.01
 20
18.3333
 11
361
 21
18.3333
  0
LINE
  8
0
 10
361
 20
18.3333
 11
361
 21
31.6667
  0
LINE
  8
0
 10
361
 20
31.6667
 11
356.01
 21
31.6667
  0
LINE
  8
0
 10
356.01
 20
31.6667
 11
356.01
 21
38.3333
  0
LINE
  8
0
 10
356.01
 20
38.3333
 11
361
 21
38.3333
  0
LINE
  8
0
 10
361
 20
38.3333
 11
361
 21
45.01
  0
LINE
  8
0
 10
361
 20
45.01
 11
300.833
 21
45.01
  0
LINE
  8
0
 10
300.833
 20
45.01
 11
300.833
 21
50
  0
LINE
  8
0
 10
300.833
 20
50
 11
241.667
 21
50
  0
LINE
  8
0
 10
241.667
 20
50
 11
241.667
 21
45.01
  0
LINE
  8
0
 10
241.667
 20
45.01
 11
123.333
 21
45.01
  0
LINE
  8
0
 10
123.333
 20
45.01
 11
123.333
 21
50
  0
LINE
  8
0
 10
123.333
 20
50
 11
64.1667
 21
50
  0
LINE
  8
0
 10
64.1667
 20
50
 11
64.1667
 21
45.01
  0
LINE
  8
0
 10
64.1667
 20
45.01
 11
4
 21
45.01
  0
LINE
  8
0
 10
4
 20
45.01
 11
4
 21
38.3333
  0
LINE
  8
0
 10
4
 20
38.3333
 11
8.98999
 21
38.3333
  0
LINE
  8
0
 10
8.98999
 20
38.3333
 11
8.98999
 21
31.6667
  0
LINE
  8
0
 10
8.98999
 20
31.6667
 11
4
 21
31.6667
  0
LINE
  8
0
 10
4
 20
31.6667
 11
4
 21
18.3333
  0
LINE
  8
0
 10
4
 20
18.3333
 11
8.98999
 21
18.3333
  0
LINE
  8
0
 10
8.98999
 20
18.3333
 11
8.98999
 21
11.6667
  0
LINE
  8
0
 10
8.98999
 20
11.6667
 11
4
 21
11.6667
  0
LINE
  8
0
 10
4
 20
11.6667
 11
4
 21
4.98999
  0
LINE
  8
0
 10
4
 20
4.98999
 11
64.1667
 21
4.98999
  0
LINE
  8
0
 10
64.1667
 20
4.98999
 11
64.1667
 21
0
  0
LINE
  8
0
 10
64.1667
 20
0
 11
123.333
 21
0
  0
LINE
  8
0
 10
123.333
 20
0
 11
123.333
 21
4.98999
  0
ENDSEC
  0
SECTION
  2
OBJECTS
  0
DICTIONARY
  0
ENDSEC
  0
EOF
